<svg xmlns="http://www.w3.org/2000/svg" width="1805" height="910" viewBox="0 0 1805 910" role="img" aria-labelledby="title desc">
    <title id="title">Microsoft GitHub Copilot credential for Le Vu Hoang Khanh</title>
    <desc id="desc">Microsoft credential showing GitHub Copilot certification details, credential ID 187CE14376A141C0, certification number 95AFCD-98N910, earned May 23, 2026 and expiring May 23, 2028.</desc>
    <defs>
        <pattern id="blue-pattern" width="190" height="120" patternUnits="userSpaceOnUse">
            <rect width="190" height="120" fill="#123a68"/>
            <path d="M-20 15 C45 -20 95 -20 160 15 S285 50 350 15" fill="none" stroke="#0a2a4e" stroke-width="10" opacity=".4"/>
            <path d="M-15 92 C35 58 92 58 145 92 S255 126 315 92" fill="none" stroke="#1d4a7f" stroke-width="5" opacity=".45"/>
            <path d="M20 0 L95 60 L20 120 M95 0 L170 60 L95 120" fill="none" stroke="#0d315b" stroke-width="4" opacity=".35"/>
        </pattern>
        <linearGradient id="badge" x1="0" x2="1" y1="0" y2="1">
            <stop stop-color="#596175"/>
            <stop offset=".36" stop-color="#1b2130"/>
            <stop offset="1" stop-color="#101520"/>
        </linearGradient>
        <filter id="soft-shadow" x="-20%" y="-20%" width="140%" height="140%">
            <feDropShadow dx="0" dy="2" stdDeviation="2" flood-color="#000000" flood-opacity=".35"/>
        </filter>
    </defs>

    <rect width="1805" height="910" fill="url(#blue-pattern)"/>
    <rect x="5" y="7" width="1795" height="889" rx="9" fill="#1f1f1f"/>

    <g transform="translate(795 56)">
        <rect width="22" height="22" fill="#f25022"/>
        <rect x="25" width="22" height="22" fill="#7fba00"/>
        <rect y="25" width="22" height="22" fill="#00a4ef"/>
        <rect x="25" y="25" width="22" height="22" fill="#ffb900"/>
        <text x="59" y="38" fill="#f4f4f4" font-family="Segoe UI, Arial, Helvetica, sans-serif" font-size="41" font-weight="700">Microsoft</text>
    </g>

    <text x="902" y="256" text-anchor="middle" fill="#ffffff" font-family="Segoe UI, Arial, Helvetica, sans-serif" font-size="40" font-weight="700">Le Vu Hoang Khanh</text>
    <text x="902" y="311" text-anchor="middle" fill="#ffffff" font-family="Segoe UI, Arial, Helvetica, sans-serif" font-size="28">has successfully passed all requirements for</text>
    <text x="902" y="384" text-anchor="middle" fill="#ffffff" font-family="Segoe UI, Arial, Helvetica, sans-serif" font-size="32" font-weight="700">GitHub Copilot</text>

    <g transform="translate(775 541)" filter="url(#soft-shadow)">
        <path d="M28 2 H226 Q252 2 258 31 V172 Q258 199 232 213 L129 265 L28 213 Q2 199 2 172 V31 Q8 2 28 2Z" fill="url(#badge)" stroke="#52607b" stroke-width="6"/>
        <path d="M43 8 H211 Q241 8 249 40 V164 Q249 191 222 205 L129 254 L36 205 Q10 191 10 164 V40 Q14 8 43 8Z" fill="#151a25" opacity=".8" stroke="#6e7891" stroke-width="1"/>
        <g transform="translate(111 22)" opacity=".45">
            <circle cx="17" cy="17" r="17" fill="#556177"/>
            <path d="M10 20 C6 17 5 10 9 7 C12 4 16 5 18 8 C21 5 26 4 29 8 C33 13 31 20 24 23 V29 H13 V23 Z" fill="#0f1420"/>
        </g>
        <text x="129" y="113" text-anchor="middle" fill="#ffffff" font-family="Segoe UI, Arial, Helvetica, sans-serif" font-size="34" font-weight="800">GitHub</text>
        <text x="129" y="145" text-anchor="middle" fill="#ffffff" font-family="Segoe UI, Arial, Helvetica, sans-serif" font-size="34" font-weight="800">Copilot</text>
        <text x="129" y="188" text-anchor="middle" fill="#79f67e" font-family="Segoe UI, Arial, Helvetica, sans-serif" font-size="15">Certification</text>
        <text x="129" y="204" text-anchor="middle" fill="#79f67e" font-family="Segoe UI, Arial, Helvetica, sans-serif" font-size="15">Program</text>
    </g>

    <g fill="#ffffff" font-family="Segoe UI, Arial, Helvetica, sans-serif" font-size="26">
        <text x="102" y="567">Credential ID: 187CE14376A141C0</text>
        <text x="102" y="609">Certification number: 95AFCD-98N910</text>
        <text x="102" y="651">Earned on: May 23, 2026</text>
        <text x="102" y="694">Expires on: May 23, 2028</text>
    </g>

    <g transform="translate(102 753)">
        <rect width="256" height="47" rx="24" fill="#10507d" stroke="#8dceff" stroke-width="2"/>
        <path d="M18 23 L29 34 L51 12" fill="none" stroke="#9bd6ff" stroke-width="5"/>
        <text x="63" y="32" fill="#aad9ff" font-family="Segoe UI, Arial, Helvetica, sans-serif" font-size="24" font-weight="700">Online Verifiable</text>
    </g>

    <g transform="translate(1503 611)">
        <rect width="200" height="104" fill="#ffffff"/>
        <path d="M35 39 C48 49 70 47 79 36 M55 21 C48 48 35 61 36 37 C37 13 49 11 53 20 M115 35 C121 47 130 53 141 44 M135 25 C146 41 158 49 162 27" fill="none" stroke="#1f1f1f" stroke-width="3" stroke-linecap="round"/>
        <text x="101" y="91" text-anchor="middle" fill="#333333" font-family="Segoe UI, Arial, Helvetica, sans-serif" font-size="17" font-weight="700">Satya Narayana Nadella</text>
    </g>
</svg>
