<svg xmlns="http://www.w3.org/2000/svg" width="1196" height="718" viewBox="0 0 1196 718" role="img" aria-labelledby="title desc">
    <title id="title">Microsoft Learn achievement for Foundations of Agentic AI in GitHub</title>
    <desc id="desc">Microsoft Learn achievement awarded to Le Vu Hoang Khanh for completing Foundations of Agentic AI in GitHub on May 23, 2026.</desc>
    <defs>
        <pattern id="edge-pattern" width="90" height="90" patternUnits="userSpaceOnUse">
            <rect width="90" height="90" fill="#ffffff"/>
            <path d="M0 12 L24 0 L48 12 L72 0 L96 12 M0 78 L24 90 L48 78 L72 90 L96 78" fill="none" stroke="#33aee2" stroke-width="2" opacity=".7"/>
            <path d="M12 0 V18 M78 72 V90 M0 46 H18 M72 44 H90" fill="none" stroke="#33aee2" stroke-width="2" opacity=".5"/>
        </pattern>
        <filter id="shadow" x="-10%" y="-10%" width="120%" height="120%">
            <feDropShadow dx="0" dy="2" stdDeviation="3" flood-color="#000000" flood-opacity=".18"/>
        </filter>
    </defs>

    <rect width="1196" height="718" fill="url(#edge-pattern)"/>
    <rect x="6" y="8" width="1184" height="702" rx="8" fill="#ffffff" filter="url(#shadow)"/>

    <g transform="translate(56 57)">
        <rect width="15" height="15" fill="#f25022"/>
        <rect x="18" width="15" height="15" fill="#7fba00"/>
        <rect y="18" width="15" height="15" fill="#00a4ef"/>
        <rect x="18" y="18" width="15" height="15" fill="#ffb900"/>
        <text x="41" y="27" fill="#111111" font-family="Segoe UI, Arial, Helvetica, sans-serif" font-size="28" font-weight="700">Microsoft</text>
    </g>

    <g transform="translate(493 123)">
        <path d="M102 0 C138 12 167 41 178 77 C199 77 199 160 178 160 C166 196 137 224 102 235 C66 224 38 196 26 160 C5 160 5 77 26 77 C38 41 66 12 102 0Z" fill="#25a4ed" opacity=".9"/>
        <circle cx="102" cy="117" r="70" fill="#1b80d0"/>
        <circle cx="102" cy="117" r="47" fill="#fdd436"/>
        <circle cx="102" cy="117" r="34" fill="#ffb000"/>
        <path d="M102 90 L110 107 L129 109 L115 122 L119 141 L102 131 L85 141 L89 122 L75 109 L94 107Z" fill="#ffffff"/>
        <path d="M80 156 L80 194 L103 174 L126 194 L126 156Z" fill="#ef5b3a"/>
        <g fill="#ffffff" opacity=".92">
            <path d="M60 111 L65 120 L75 121 L68 128 L70 138 L60 133 L51 138 L53 128 L46 121 L56 120Z"/>
            <path d="M148 102 L153 111 L163 112 L156 119 L158 129 L148 124 L139 129 L141 119 L134 112 L144 111Z"/>
            <path d="M123 50 L126 56 L133 57 L128 62 L130 69 L123 66 L117 69 L119 62 L114 57 L121 56Z"/>
        </g>
        <g fill="none" stroke="#25a4ed" stroke-width="3" stroke-linecap="round">
            <path d="M12 45 H0 V20 M26 24 V0 M190 45 H204 V20 M178 24 V0 M12 189 H0 V214 M26 210 V235 M190 189 H204 V214 M178 210 V235"/>
            <path d="M20 75 H3 M20 96 H0 M20 139 H0 M20 160 H4 M185 75 H202 M185 96 H205 M185 139 H205 M185 160 H201"/>
        </g>
        <g fill="#25a4ed">
            <circle cx="0" cy="20" r="3"/><circle cx="26" cy="0" r="3"/><circle cx="204" cy="20" r="3"/><circle cx="178" cy="0" r="3"/>
            <circle cx="0" cy="214" r="3"/><circle cx="26" cy="235" r="3"/><circle cx="204" cy="214" r="3"/><circle cx="178" cy="235" r="3"/>
        </g>
    </g>

    <text x="598" y="384" text-anchor="middle" fill="#1f1f1f" font-family="Segoe UI, Arial, Helvetica, sans-serif" font-size="38" font-weight="700">Le Vu Hoang Khanh</text>
    <text x="598" y="454" text-anchor="middle" fill="#1f1f1f" font-family="Segoe UI, Arial, Helvetica, sans-serif" font-size="30">has successfully completed</text>
    <text x="598" y="522" text-anchor="middle" fill="#1f1f1f" font-family="Segoe UI, Arial, Helvetica, sans-serif" font-size="29" font-weight="700">Foundations of Agentic AI in GitHub</text>
    <text x="598" y="591" text-anchor="middle" fill="#1f1f1f" font-family="Segoe UI, Arial, Helvetica, sans-serif" font-size="25">May 23, 2026</text>

    <g transform="translate(985 568)">
        <path d="M30 37 C45 45 62 42 70 32 M50 12 C43 39 31 53 32 30 C33 7 46 5 50 13 M104 31 C113 43 124 49 134 38 M128 22 C140 38 151 45 156 24" fill="none" stroke="#111111" stroke-width="2.4" stroke-linecap="round"/>
        <line x1="0" y1="60" x2="150" y2="60" stroke="#dddddd" stroke-width="1"/>
        <text x="75" y="83" text-anchor="middle" fill="#333333" font-family="Segoe UI, Arial, Helvetica, sans-serif" font-size="14" font-weight="700">Satya Narayana Nadella</text>
    </g>
</svg>
